{
    "asset" : {
        "generator" : "Khronos glTF Blender I/O v1.3.48",
        "version" : "2.0"
    },
    "scene" : 0,
    "scenes" : [
        {
            "name" : "Scene",
            "nodes" : [
                0
            ]
        }
    ],
    "nodes" : [
        {
            "mesh" : 0,
            "name" : "Object_4.002"
        }
    ],
    "materials" : [
        {
            "doubleSided" : true,
            "emissiveFactor" : [
                0,
                0,
                0
            ],
            "name" : "leaf_2.001",
            "pbrMetallicRoughness" : {
                "baseColorTexture" : {
                    "index" : 0,
                    "texCoord" : 0
                },
                "metallicFactor" : 0,
                "roughnessFactor" : 0.36236512660980225
            }
        }
    ],
    "meshes" : [
        {
            "name" : "Object_1.002",
            "primitives" : [
                {
                    "attributes" : {
                        "POSITION" : 0,
                        "NORMAL" : 1,
                        "TEXCOORD_0" : 2
                    },
                    "indices" : 3,
                    "material" : 0
                }
            ]
        }
    ],
    "textures" : [
        {
            "source" : 0
        }
    ],
    "images" : [
        {
            "bufferView" : 4,
            "mimeType" : "image/jpeg",
            "name" : "Image_0"
        }
    ],
    "accessors" : [
        {
            "bufferView" : 0,
            "componentType" : 5126,
            "count" : 268,
            "max" : [
                0.15913836658000946,
                0.1311672329902649,
                0.24006739258766174
            ],
            "min" : [
                -0.16774678230285645,
                -0.3124615550041199,
                -0.3946630358695984
            ],
            "type" : "VEC3"
        },
        {
            "bufferView" : 1,
            "componentType" : 5126,
            "count" : 268,
            "type" : "VEC3"
        },
        {
            "bufferView" : 2,
            "componentType" : 5126,
            "count" : 268,
            "type" : "VEC2"
        },
        {
            "bufferView" : 3,
            "componentType" : 5123,
            "count" : 1260,
            "type" : "SCALAR"
        }
    ],
    "bufferViews" : [
        {
            "buffer" : 0,
            "byteLength" : 3216,
            "byteOffset" : 0
        },
        {
            "buffer" : 0,
            "byteLength" : 3216,
            "byteOffset" : 3216
        },
        {
            "buffer" : 0,
            "byteLength" : 2144,
            "byteOffset" : 6432
        },
        {
            "buffer" : 0,
            "byteLength" : 2520,
            "byteOffset" : 8576
        },
        {
            "buffer" : 0,
            "byteLength" : 40722,
            "byteOffset" : 11096
        }
    ],
    "buffers" : [
        {
            "byteLength" : 51820,
            "uri" : "data:application/octet-stream;base64,"
        }
    ]
}
